<?xml version="1.0" standalone="no"?>
<!DOCTYPE svg PUBLIC "-//W3C//DTD SVG 20010904//EN"
 "http://www.w3.org/TR/2001/REC-SVG-20010904/DTD/svg10.dtd">
<svg version="1.0" xmlns="http://www.w3.org/2000/svg"
 width="512.000000pt" height="512.000000pt" viewBox="0 0 512.000000 512.000000"
 preserveAspectRatio="xMidYMid meet">
<metadata>
Created by potrace 1.11, written by Peter Selinger 2001-2013
</metadata>
<g transform="translate(0.000000,512.000000) scale(0.100000,-0.100000)"
fill="#000000" stroke="none">
<path d="M1467 4874 c-1 -1 -33 -4 -72 -7 -57 -5 -124 -19 -240 -51 -55 -15
-175 -75 -245 -122 -263 -176 -421 -478 -421 -803 1 -58 2 -115 5 -126 2 -11
7 -40 11 -65 9 -53 10 -58 30 -135 9 -33 22 -76 30 -95 7 -19 26 -66 41 -105
63 -164 255 -529 428 -813 31 -51 56 -97 56 -102 0 -6 5 -10 10 -10 6 0 10 -4
10 -10 0 -5 33 -65 74 -132 158 -263 306 -544 306 -580 0 -8 4 -18 8 -24 13
-14 52 -145 58 -195 20 -148 -33 -367 -142 -596 -105 -218 -240 -362 -342
-363 -77 -1 -285 168 -382 311 -115 169 -198 405 -196 558 l1 54 340 -1 c200
0 353 4 372 9 110 34 110 194 0 228 -19 6 -182 9 -417 8 -426 -2 -415 -1 -479
-69 -44 -47 -63 -113 -62 -214 1 -47 3 -89 5 -92 2 -4 7 -29 10 -57 10 -72 52
-208 92 -293 19 -41 34 -75 34 -77 0 -2 17 -32 37 -67 152 -260 407 -484 628
-553 133 -41 120 -41 1595 -39 784 0 1436 4 1449 7 55 14 130 41 189 68 35 16
65 29 67 29 8 0 130 84 158 109 222 194 353 505 362 861 4 182 -36 339 -166
650 -30 70 -305 616 -351 695 -19 33 -73 125 -120 205 -128 218 -200 369 -228
479 -7 27 -25 58 -45 78 -58 58 -150 41 -190 -37 -23 -44 -6 -118 62 -285 46
-111 77 -170 225 -420 247 -419 483 -914 544 -1140 26 -97 26 -345 0 -460 -30
-131 -59 -199 -125 -295 -47 -69 -157 -180 -178 -180 -7 0 -13 -4 -13 -9 0
-13 -127 -77 -190 -95 -49 -15 -178 -17 -1255 -17 -660 0 -1251 0 -1314 1
l-113 0 32 36 c186 212 367 675 355 905 -5 97 -12 136 -42 239 -54 190 -176
434 -410 822 -35 60 -61 113 -58 118 4 6 2 9 -5 8 -6 -2 -17 8 -25 22 -8 14
-55 94 -105 178 -49 84 -90 155 -90 158 0 2 -11 21 -24 42 -58 93 -230 450
-240 501 -2 9 -8 30 -15 46 -7 17 -22 68 -34 115 -27 112 -29 312 -3 415 23
87 75 203 117 258 86 113 237 208 392 247 l78 19 110 -112 c191 -194 260 -324
354 -672 21 -75 89 -147 158 -167 36 -10 317 -13 1394 -12 1514 1 1388 -6
1457 76 36 42 67 132 60 176 -45 279 -200 599 -370 765 -89 87 -245 171 -359
193 -32 6 -2670 14 -2678 8z m423 -245 c3 -1 10 0 15 1 6 1 494 2 1085 2 804
-1 1088 -4 1125 -13 70 -17 154 -62 217 -119 116 -103 232 -327 282 -541 l14
-58 -1294 0 -1294 0 -6 27 c-18 84 -82 264 -129 360 -57 119 -112 207 -182
289 l-43 52 37 3 c37 3 163 1 173 -3z"/>
<path d="M1639 3147 c-58 -39 -69 -122 -25 -180 31 -40 62 -42 622 -41 378 1
541 -2 546 -10 5 -7 8 -7 8 -1 0 7 82 11 247 10 283 0 306 5 337 70 20 42 15
98 -12 129 -43 47 -20 46 -880 46 l-809 0 -34 -23z"/>
<path d="M2288 2677 c-113 -29 -125 -188 -18 -229 15 -6 274 -10 646 -10 686
0 666 -2 700 63 36 71 2 157 -71 175 -38 10 -1219 10 -1257 1z"/>
<path d="M3690 2205 c0 -7 -163 -11 -502 -10 -461 0 -506 -1 -539 -18 -62 -30
-82 -112 -43 -173 37 -55 26 -54 639 -54 507 0 570 2 595 16 59 35 77 111 40
171 -26 43 -52 55 -119 55 -31 1 -59 6 -63 12 -5 7 -8 7 -8 1z"/>
<path d="M2381 1688 c-61 -30 -82 -105 -45 -167 35 -60 3 -58 884 -58 883 0
842 -3 880 60 36 58 21 124 -37 163 -31 21 -32 21 -838 21 -773 0 -808 -1
-844 -19z"/>
<path d="M2825 1206 c-87 -38 -92 -158 -9 -213 26 -16 67 -18 583 -18 306 -1
569 3 586 7 106 29 114 189 10 228 -43 16 -1132 13 -1170 -4z"/>
</g>
</svg>
